<?xml version="1.0" encoding="UTF-8"?>
<svg version="1.1" xmlns="http://www.w3.org/2000/svg" width="1024" height="1024">
<path d="M0 0 C337.92 0 675.84 0 1024 0 C1024 337.92 1024 675.84 1024 1024 C686.08 1024 348.16 1024 0 1024 C0 686.08 0 348.16 0 0 Z " fill="#FD95D8" transform="translate(0,0)"/>
<path d="M0 0 C337.92 0 675.84 0 1024 0 C1024 337.92 1024 675.84 1024 1024 C686.08 1024 348.16 1024 0 1024 C0 686.08 0 348.16 0 0 Z M160 168 C159.30519531 168.63035156 158.61039063 169.26070312 157.89453125 169.91015625 C128.22470443 197.74473605 110.65127491 242.01195696 108 282 C107.85016704 288.14285194 107.85617119 294.28410938 107.85955811 300.42849731 C107.85697152 302.30918243 107.85395755 304.18986699 107.8505547 306.0705508 C107.8425155 311.22354613 107.84069685 316.37652752 107.83995724 321.52952838 C107.83810123 327.09360293 107.83055102 332.65767033 107.82382202 338.22174072 C107.81025871 350.38352819 107.80421672 362.54531235 107.79981136 374.70710611 C107.7970448 382.30927379 107.79280662 389.9114402 107.78830719 397.51360703 C107.77611571 418.58412914 107.76578176 439.65465041 107.7624321 460.72517586 C107.76221047 462.08656702 107.76198869 463.44795819 107.76176675 464.80934935 C107.76154611 466.1739091 107.76132563 467.53846886 107.7611053 468.90302861 C107.76066276 471.64026777 107.76021564 474.37750693 107.75976562 477.11474609 C107.75965623 477.79341697 107.75954684 478.47208784 107.75943414 479.1713245 C107.75580786 501.15058325 107.73990332 523.12980894 107.71657526 545.10905504 C107.69191833 568.38320062 107.67826318 591.65732476 107.67706418 614.93148601 C107.67614996 627.60380863 107.6704618 640.27608795 107.65224457 652.94839859 C107.63677862 663.74456939 107.6317611 674.54068352 107.63998267 685.33686329 C107.64386667 690.8365224 107.64307081 696.33606763 107.62892532 701.83571243 C107.49192626 758.46946975 116.09154911 811.31177206 157.53076172 853.49121094 C158.96477032 854.96382196 160.3612076 856.46494461 161.75390625 857.9765625 C191.58572762 889.79542435 236.94655515 907.66920994 280 910 C286.39442682 910.17961897 292.79274078 910.14390395 299.18908691 910.14044189 C301.11574726 910.14303005 303.04240706 910.14604446 304.96906614 910.1494453 C310.23509095 910.15746545 315.50110209 910.15930206 320.76713228 910.16004276 C326.45788719 910.16190202 332.14863514 910.16945362 337.83938599 910.17617798 C350.26938087 910.18972567 362.69937251 910.19578026 375.12937355 910.20018864 C382.89854119 910.20295673 390.66770759 910.20719507 398.43687439 910.21169281 C419.97075598 910.22388011 441.50463597 910.23421627 463.03852081 910.2375679 C464.42902858 910.23778953 465.81953635 910.23801131 467.21004412 910.23823325 C468.60376706 910.23845389 469.99749 910.23867437 471.39121294 910.2388947 C474.1869154 910.23933723 476.98261786 910.23978435 479.77832031 910.24023438 C480.81806469 910.24039846 480.81806469 910.24039846 481.878814 910.24056586 C504.3440107 910.2441948 526.80917509 910.26011171 549.27435941 910.28342474 C573.06471963 910.30806752 596.85505933 910.32173607 620.64543295 910.32293582 C633.59874841 910.32385059 646.55202155 910.32955311 659.50532532 910.34775543 C670.53610074 910.36320225 681.56682074 910.36824987 692.59760493 910.36001733 C698.21842824 910.35612722 703.8391401 910.35695985 709.45994949 910.37107468 C714.61957346 910.38391215 719.77900335 910.38253075 724.93862742 910.37048396 C726.79122659 910.36854389 728.64383998 910.37152575 730.49641925 910.38032833 C747.07616936 910.45403078 763.50094282 908.75338095 779.625 904.75 C780.48287109 904.53875488 781.34074219 904.32750977 782.22460938 904.10986328 C826.76224267 892.71366138 866.54337921 863.37448869 890.33789062 824.02856445 C908.41647108 793.25684514 916.15984407 760.93379211 916.14044189 725.41964722 C916.14302843 723.52246291 916.14604239 721.62527915 916.1494453 719.72809613 C916.1574851 714.52949452 916.15930318 709.33090675 916.16004276 704.13229966 C916.16189866 698.51914493 916.16944882 692.90599729 916.17617798 687.29284668 C916.1897417 675.02362462 916.19578334 662.75440583 916.20018864 650.48517752 C916.20295512 642.81600596 916.20719329 635.14683566 916.21169281 627.47766495 C916.22388433 606.22185008 916.23421828 584.96603654 916.2375679 563.71021843 C916.23778953 562.33683692 916.23801131 560.9634554 916.23823325 559.59007389 C916.23845389 558.21349415 916.23867437 556.8369144 916.2388947 555.46033466 C916.23933724 552.69897962 916.23978436 549.93762457 916.24023438 547.17626953 C916.24034377 546.49161929 916.24045316 545.80696904 916.24056586 545.10157182 C916.2441922 522.92830596 916.26009694 500.75507289 916.28342474 478.58181957 C916.30808084 455.10275827 916.32173678 431.62372234 916.32293582 408.14464581 C916.32385009 395.36054065 916.32953934 382.57647839 916.34775543 369.7923851 C916.36322029 358.90106016 916.36823953 348.00979139 916.36001733 337.11845754 C916.35613295 331.57019241 916.35693107 326.02204017 916.37107468 320.47378922 C916.9733514 282.64172819 916.9733514 282.64172819 909.8125 245.6875 C909.51061768 244.70442871 909.20873535 243.72135742 908.89770508 242.70849609 C899.29085754 212.27490935 883.45942451 187.42230149 861 165 C860.4121875 164.37738281 859.824375 163.75476563 859.21875 163.11328125 C834.693628 137.41764206 798.4776877 122.12386878 764 116 C762.60114066 115.74801452 762.60114066 115.74801452 761.17402154 115.49093843 C750.93962219 113.83075511 740.93175129 113.71903095 730.58781433 113.74603271 C728.64918997 113.74372453 726.71056649 113.74054561 724.77194482 113.73657823 C719.47763238 113.72827058 714.18339254 113.73233712 708.88907993 113.73855066 C703.16637943 113.7430908 697.44369109 113.7360836 691.72099304 113.73059082 C680.52233867 113.72171132 669.32371116 113.72361255 658.12505575 113.7294161 C649.01941169 113.73393894 639.91377513 113.7345428 630.80813026 113.73236847 C629.51051563 113.732062 628.212901 113.73175554 626.8759647 113.73143978 C624.23957361 113.73080031 621.60318252 113.73015188 618.96679143 113.7294946 C594.96510215 113.72395773 570.96342736 113.72969344 546.96174041 113.7401798 C525.08084971 113.74966693 503.19998229 113.74882386 481.3190918 113.73925781 C456.70459363 113.7285325 432.09010887 113.72434797 407.47560865 113.73048234 C404.84817811 113.73111941 402.22074757 113.73174815 399.59331703 113.73236847 C398.30070714 113.73267702 397.00809725 113.73298557 395.67631736 113.73330347 C386.58806873 113.73502688 377.49982839 113.73212288 368.41158104 113.72740936 C357.32655578 113.72178644 346.24155882 113.72334649 335.15653678 113.73397085 C329.50584908 113.73920906 323.85520848 113.74131603 318.20452118 113.73467255 C313.02235641 113.7286723 307.840282 113.73205483 302.65812532 113.74262765 C300.79284407 113.74484455 298.92755505 113.74376432 297.06227889 113.73887607 C244.97158807 113.61293686 197.71354303 132.1421161 160 168 Z " fill="#FEFEFE" transform="translate(0,0)"/>
<path d="M0 0 C1.06246695 3.22609395 0.93235918 5.10571885 -0.1171875 8.31640625 C-0.38950195 9.15333008 -0.66181641 9.99025391 -0.94238281 10.85253906 C-1.40402832 12.19396973 -1.40402832 12.19396973 -1.875 13.5625 C-2.19307617 14.49416992 -2.51115234 15.42583984 -2.83886719 16.38574219 C-8.4939381 32.48933369 -16.14613743 47.07985114 -26 61 C-26.42474609 61.60118652 -26.84949219 62.20237305 -27.28710938 62.82177734 C-36.09720781 75.07737551 -46.95191292 86.88125174 -59 96 C-59.66 95.67 -60.32 95.34 -61 95 C-60.26394531 94.33613281 -59.52789063 93.67226563 -58.76953125 92.98828125 C-57.30580078 91.66376953 -57.30580078 91.66376953 -55.8125 90.3125 C-54.84957031 89.44238281 -53.88664063 88.57226562 -52.89453125 87.67578125 C-49.13357132 84.19905041 -45.46149751 80.73621108 -42.3125 76.6875 C-41.549375 75.800625 -40.78625 74.91375 -40 74 C-39.34 74 -38.68 74 -38 74 C-37.74476563 73.43539062 -37.48953125 72.87078125 -37.2265625 72.2890625 C-35.39193937 68.86521169 -32.9062085 66.02762758 -30.4609375 63.0234375 C-28.80487458 61.14570006 -28.80487458 61.14570006 -29 59 C-28.01 59 -27.02 59 -26 59 C-25.77441406 58.35160156 -25.54882812 57.70320312 -25.31640625 57.03515625 C-23.19461329 52.14306981 -20.31428306 47.69866825 -17.54492188 43.15039062 C-17.10599609 42.41884766 -16.66707031 41.68730469 -16.21484375 40.93359375 C-15.81386475 40.27415771 -15.41288574 39.61472168 -14.99975586 38.93530273 C-13.98180559 36.9647797 -13.44637053 35.16554507 -13 33 C-12.34 33 -11.68 33 -11 33 C-8.59009896 26.11175931 -8.59009896 26.11175931 -7 19 C-6.34 19 -5.68 19 -5 19 C-4.9175 17.72125 -4.835 16.4425 -4.75 15.125 C-4.16782347 9.65949199 -2.23611052 4.98184622 0 0 Z " fill="#F152C4" transform="translate(909,774)"/>
<path d="M0 0 C0.66 0.33 1.32 0.66 2 1 C0.44066679 2.27471705 -1.12261706 3.54460214 -2.6875 4.8125 C-3.55761719 5.52019531 -4.42773438 6.22789062 -5.32421875 6.95703125 C-11.9292543 12 -11.9292543 12 -15 12 C-15 11.34 -15 10.68 -15 10 C-13.5459375 9.319375 -13.5459375 9.319375 -12.0625 8.625 C-8.92920418 7.34213779 -8.92920418 7.34213779 -8 5 C-7.01 5 -6.02 5 -5 5 C-4.67 4.01 -4.34 3.02 -4 2 C-2.0625 0.75 -2.0625 0.75 0 0 Z " fill="#F154C4" transform="translate(846,870)"/>
</svg>
